<?xml version="1.0" standalone="no"?>
<!DOCTYPE svg PUBLIC "-//W3C//DTD SVG 20010904//EN"
 "http://www.w3.org/TR/2001/REC-SVG-20010904/DTD/svg10.dtd">
<svg version="1.0" xmlns="http://www.w3.org/2000/svg"
 width="512.000000pt" height="512.000000pt" viewBox="0 0 512.000000 512.000000"
 preserveAspectRatio="xMidYMid meet">

<g transform="translate(0.000000,512.000000) scale(0.100000,-0.100000)"
fill="#000000" stroke="none">
<path d="M1935 4720 c-943 -70 -1334 -103 -1371 -114 -67 -21 -126 -73 -155
-138 l-24 -53 -3 -1435 c-2 -1044 0 -1451 8 -1495 14 -71 65 -178 123 -255
212 -286 657 -847 690 -871 56 -40 126 -59 223 -59 182 0 3059 180 3114 195
82 22 130 60 165 130 l30 60 3 1615 c2 1124 0 1626 -8 1652 -6 22 -27 52 -54
75 -58 51 -982 697 -1049 734 -74 40 -165 59 -277 58 -52 -1 -689 -45 -1415
-99z m1495 -161 c98 -16 163 -53 429 -247 230 -167 273 -203 260 -217 -10 -9
-2491 -157 -2669 -159 -148 -1 -170 1 -210 20 -25 11 -141 96 -258 189 -172
135 -213 171 -210 189 7 50 -3 49 1303 144 677 49 1244 90 1260 91 17 0 59 -4
95 -10z m959 -795 c17 -14 35 -42 41 -62 14 -53 14 -2733 -1 -2786 -14 -50
-55 -91 -103 -104 -20 -6 -677 -48 -1459 -93 -1549 -89 -1480 -87 -1538 -30
-15 15 -32 46 -38 69 -8 28 -11 439 -9 1404 3 1295 4 1365 21 1396 11 20 33
40 54 48 27 12 372 35 1447 98 776 46 1443 84 1483 85 63 1 75 -2 102 -25z"/>
<path d="M3690 3289 c-162 -10 -310 -21 -328 -24 -64 -12 -138 -109 -119 -157
3 -9 40 -18 111 -26 59 -6 111 -14 117 -17 11 -7 13 -1195 2 -1195 -5 0 -208
304 -452 675 -244 372 -446 677 -450 679 -3 1 -158 -8 -344 -20 -372 -26 -390
-29 -433 -93 -17 -25 -24 -49 -24 -82 l0 -47 88 -7 c48 -3 97 -8 110 -11 l22
-4 0 -865 c0 -814 -1 -864 -17 -869 -135 -38 -162 -49 -182 -69 -26 -28 -39
-91 -21 -102 14 -9 615 23 686 36 62 12 118 56 134 105 7 19 10 38 7 41 -3 2
-62 17 -130 33 -68 15 -130 30 -136 34 -13 8 -16 1296 -3 1296 4 0 202 -306
441 -680 239 -374 456 -704 484 -735 27 -31 67 -65 88 -76 86 -44 225 -32 367
31 l72 33 0 968 0 969 23 5 c12 3 45 9 72 15 75 16 101 29 114 56 12 28 15
125 4 123 -5 -1 -141 -10 -303 -20z"/>
</g>
</svg>
